<?xml version="1.0" encoding="utf-8"?>
<!-- Generator: Adobe Illustrator 23.0.2, SVG Export Plug-In . SVG Version: 6.00 Build 0)  -->
<svg version="1.1" id="Layer_1" xmlns="http://www.w3.org/2000/svg" xmlns:xlink="http://www.w3.org/1999/xlink" x="0px" y="0px" viewBox="0 0 900 600" style="enable-background:new 0 0 900 600;" xml:space="preserve">

<g id="illustration">
	<g id="books">
		
			<linearGradient id="_3_1_" gradientUnits="userSpaceOnUse" x1="433.17" y1="204.3348" x2="574.05" y2="204.3348" gradientTransform="matrix(1 0 0 -1 0 602)">
			<stop offset="0" style="stop-color:#23286B"/>
			<stop offset="1" style="stop-color:#151A4F"/>
		</linearGradient>
		<path id="_3" d="M574,397.7c0,7.2-5.8,13-13,13c-0.1,0-0.1,0-0.2,0v0H433.2v-5.3h128v0c4.3-0.2,7.6-3.8,7.4-8
			c-0.2-4.1-3.6-7.4-7.7-7.4c-0.1,0-0.2,0-0.3,0H433.2v-5.4h127.7v0h0.1C568.2,384.7,574,390.5,574,397.7z" style="fill:url(#_3_1_);"/>
		
			<linearGradient id="_7_1_" gradientUnits="userSpaceOnUse" x1="578.1519" y1="97.8056" x2="411.9911" y2="103.1512" gradientTransform="matrix(1 0 0 -1 0 602)">
			<stop offset="0" style="stop-color:#23286B"/>
			<stop offset="1" style="stop-color:#151A4F"/>
		</linearGradient>
		<path id="_7" d="M430.9,501.8c0,4.1,3.3,7.5,7.4,7.7v0h128v5.3H438.6v0c0,0-0.1,0-0.1,0c-7.2,0-13-5.8-13-13
			c0-7.2,5.8-13,13-13c0,0,0,0,0,0h127.9v5.3H439c-0.1,0-0.2,0-0.3,0C434.4,494,430.9,497.5,430.9,501.8z" style="fill:url(#_7_1_);"/>
		
			<linearGradient id="_5_1_" gradientUnits="userSpaceOnUse" x1="795.6804" y1="65.5278" x2="364.1529" y2="201.2893" gradientTransform="matrix(1 0 0 -1 0 602)">
			<stop offset="0" style="stop-color:#A1C3FC"/>
			<stop offset="0.6955" style="stop-color:#81AEF2"/>
			<stop offset="1" style="stop-color:#78A9EF"/>
		</linearGradient>
		<path id="_5" d="M450,449.9c0,4.1,3.3,7.5,7.4,7.7v0h127.3v5.2H457v0c-7.2-0.1-13-6-12.9-13.2
			c0.1-7.1,5.8-12.8,12.9-12.9v0h127.8v5.5H458.1c-0.1,0-0.2,0-0.3,0C453.5,442.2,450,445.6,450,449.9z" style="fill:url(#_5_1_);"/>
		
			<linearGradient id="_4_1_" gradientUnits="userSpaceOnUse" x1="559.4099" y1="150.6373" x2="344.517" y2="262.4693" gradientTransform="matrix(1 0 0 -1 0 602)">
			<stop offset="0" style="stop-color:#A1C3FC"/>
			<stop offset="0.6955" style="stop-color:#81AEF2"/>
			<stop offset="1" style="stop-color:#78A9EF"/>
		</linearGradient>
		<path id="_4" d="M500.2,423.1c0,0.2,0,0.4,0,0.5c0,4.1,3.3,7.5,7.4,7.7v0h0.3c0,0,0,0,0,0c0,0,0,0,0,0h63.8v5.3H443.9
			c-7.2,0-13-5.9-13-13.1c0-7.2,5.8-13,13-13h127.7v5.3h-63.5c-0.1,0-0.2,0-0.3,0c-0.2,0-0.3,0-0.5,0c-3.6,0.2-6.5,3-7.1,6.5
			C500.2,422.7,500.2,422.9,500.2,423.1z" style="fill:url(#_4_1_);"/>
		
			<linearGradient id="_1_1_" gradientUnits="userSpaceOnUse" x1="433.3987" y1="256.325" x2="566.3101" y2="256.325" gradientTransform="matrix(1 0 0 -1 0 602)">
			<stop offset="0.1291" style="stop-color:#428DFC"/>
			<stop offset="0.9987" style="stop-color:#1D72D8"/>
		</linearGradient>
		<path id="_1" d="M513,344.9c0,0.3,0,0.5,0,0.8c0,4.1,3.3,7.5,7.4,7.7v0h46v5.3H446.4c-7.2,0-13-5.9-13-13.1
			c0-7.2,5.8-12.9,13-13h119.9v5.3h-45.4c-0.1,0-0.2,0-0.3,0c-0.1,0-0.3,0-0.4,0c-3.6,0.2-6.7,2.9-7.2,6.5
			C513,344.6,513,344.8,513,344.9z" style="fill:url(#_1_1_);"/>
		
			<linearGradient id="_6_1_" gradientUnits="userSpaceOnUse" x1="456.2527" y1="126.3" x2="597.1728" y2="126.3" gradientTransform="matrix(1 0 0 -1 0 602)">
			<stop offset="0.1291" style="stop-color:#428DFC"/>
			<stop offset="0.9987" style="stop-color:#1D72D8"/>
		</linearGradient>
		<path id="_6" d="M585.6,475.7c0,7.2-5.8,13-13,13c0,0-0.1,0-0.2,0v0H444.7v-5.3h69.7v0c4.1-0.2,7.4-3.6,7.4-7.7
			c0-0.2,0-0.4,0-0.5c-0.3-3.8-3.3-6.9-7.2-7.2c-0.2,0-0.3,0-0.5,0c-0.1,0-0.2,0-0.3,0h-69v-5.3l127.7,0v0c0,0,0.1,0,0.2,0
			C579.7,462.7,585.6,468.5,585.6,475.7z" style="fill:url(#_6_1_);"/>
		
			<linearGradient id="_2_1_" gradientUnits="userSpaceOnUse" x1="433.6552" y1="230.34" x2="603.0961" y2="230.34" gradientTransform="matrix(1 0 0 -1 0 602)">
			<stop offset="0" style="stop-color:#A1C3FC"/>
			<stop offset="0.6955" style="stop-color:#81AEF2"/>
			<stop offset="0.7528" style="stop-color:#7FADF1"/>
			<stop offset="1" style="stop-color:#78A9EF"/>
		</linearGradient>
		<path id="_2" d="M582.2,371.7c0,7.2-5.8,13-13,13H569v0H441.2v-5.3h127.3v0c4.3-0.2,7.6-3.8,7.4-8
			c-0.2-4.1-3.6-7.4-7.7-7.4c-0.1,0-0.2,0-0.3,0H441.2v-5.3l127.7,0v0h0.2C576.3,358.6,582.2,364.5,582.2,371.7z" style="fill:url(#_2_1_);"/>
		
			<linearGradient id="_6-2_1_" gradientUnits="userSpaceOnUse" x1="469.6923" y1="126.3" x2="541.5323" y2="126.3" gradientTransform="matrix(1 0 0 -1 0 602)">
			<stop offset="8.983001e-02" style="stop-color:#EEEEEE"/>
			<stop offset="0.8178" style="stop-color:#D6D7D8"/>
		</linearGradient>
		<path id="_6-2" d="M521.7,475.7c0,4.1-3.3,7.5-7.4,7.7v0h-64.5V468h64.7c3.8,0.3,6.9,3.3,7.2,7.2
			C521.7,475.3,521.7,475.5,521.7,475.7z" style="fill:url(#_6-2_1_);"/>
		
			<linearGradient id="_2-2_1_" gradientUnits="userSpaceOnUse" x1="443.2748" y1="229.2967" x2="578.1598" y2="231.4514" gradientTransform="matrix(1 0 0 -1 0 602)">
			<stop offset="8.983001e-02" style="stop-color:#EEEEEE"/>
			<stop offset="0.8178" style="stop-color:#D6D7D8"/>
		</linearGradient>
		<path id="_2-2" d="M576,371.7c0.1-4.1-3.2-7.6-7.3-7.7c-0.1,0-0.2,0-0.3,0H447v15.4h121.6c0,0,0,0,0,0s0,0,0,0h0.3v0
			C573,379.1,576,375.7,576,371.7z" style="fill:url(#_2-2_1_);"/>
		
			<linearGradient id="_3-2_1_" gradientUnits="userSpaceOnUse" x1="438.3423" y1="204.3342" x2="568.5462" y2="204.3342" gradientTransform="matrix(1 0 0 -1 0 602)">
			<stop offset="8.983001e-02" style="stop-color:#EEEEEE"/>
			<stop offset="0.8178" style="stop-color:#D6D7D8"/>
		</linearGradient>
		<path id="_3-2" d="M568.5,397.7c0.1-4.2-3.2-7.6-7.4-7.7c-0.1,0-0.2,0-0.3,0H438.3v15.4h122.8c0,0,0,0,0,0s0,0,0,0
			h0.3v0C565.5,405.1,568.6,401.7,568.5,397.7z" style="fill:url(#_3-2_1_);"/>
		
			<linearGradient id="_4-2_1_" gradientUnits="userSpaceOnUse" x1="570.6351" y1="176.6156" x2="476.6994" y2="181.3554" gradientTransform="matrix(1 0 0 -1 0 602)">
			<stop offset="8.983001e-02" style="stop-color:#EEEEEE"/>
			<stop offset="0.8178" style="stop-color:#D6D7D8"/>
		</linearGradient>
		<path id="_4-2" d="M566.4,416v15.4h-58.9v0c-4.1-0.2-7.4-3.6-7.4-7.7c0-0.2,0-0.4,0-0.5c0-0.2,0-0.4,0.1-0.6
			c0.5-3.6,3.5-6.3,7.1-6.5H566.4z" style="fill:url(#_4-2_1_);"/>
		
			<linearGradient id="_7-2_1_" gradientUnits="userSpaceOnUse" x1="585.4571" y1="100.0422" x2="380.3285" y2="100.4731" gradientTransform="matrix(1 0 0 -1 0 602)">
			<stop offset="8.983001e-02" style="stop-color:#EEEEEE"/>
			<stop offset="0.8178" style="stop-color:#D6D7D8"/>
		</linearGradient>
		<path id="_7-2" d="M561.9,494.1H438.7c-0.1,0-0.2,0-0.3,0c-4.3,0.2-7.6,3.7-7.4,8c0.1,3.9,3.2,7.1,7.1,7.4v0h0.3
			c0,0,0,0,0,0s0,0,0,0h123.5V494.1z" style="fill:url(#_7-2_1_);"/>
		
			<linearGradient id="_1-2_1_" gradientUnits="userSpaceOnUse" x1="577.5145" y1="250.404" x2="515.9047" y2="260.3133" gradientTransform="matrix(1 0 0 -1 0 602)">
			<stop offset="8.983001e-02" style="stop-color:#EEEEEE"/>
			<stop offset="0.8178" style="stop-color:#D6D7D8"/>
		</linearGradient>
		<path id="_1-2" d="M561.5,338v15.4h-41.2v0c-4.1-0.2-7.4-3.6-7.4-7.7c0-0.3,0-0.5,0-0.8c0-0.1,0-0.3,0-0.4
			c0.6-3.6,3.6-6.3,7.2-6.5L561.5,338z" style="fill:url(#_1-2_1_);"/>
		
			<linearGradient id="_5-2_1_" gradientUnits="userSpaceOnUse" x1="572.9546" y1="151.2661" x2="405.7489" y2="153.8517" gradientTransform="matrix(1 0 0 -1 0 602)">
			<stop offset="8.983001e-02" style="stop-color:#EEEEEE"/>
			<stop offset="0.8178" style="stop-color:#D6D7D8"/>
		</linearGradient>
		<path id="_5-2" d="M578.7,442.2H457.6c-0.1,0-0.2,0-0.3,0c-4.3,0.2-7.5,3.9-7.3,8.1c0.2,3.8,3.2,6.9,7,7.3v0h0.3
			c0,0,0,0,0,0s0,0,0,0h121.3V442.2z" style="fill:url(#_5-2_1_);"/>
	</g>
	<g id="man">
		
			<linearGradient id="R_shoe_1_" gradientUnits="userSpaceOnUse" x1="241.4971" y1="167.8918" x2="333.0576" y2="167.8918" gradientTransform="matrix(0.9998 -2.116664e-02 -2.116664e-02 -0.9998 3.6306 606.0584)">
			<stop offset="0" style="stop-color:#23286B"/>
			<stop offset="1" style="stop-color:#151A4F"/>
		</linearGradient>
		<path id="R_shoe" d="M332.9,425.2L319,464.7l-78.1-63.2c0,0,10.3-4.5,28.3,0.7s40,3.6,40,3.6L332.9,425.2" style="fill:url(#R_shoe_1_);"/>
		
			<linearGradient id="L_shoe_1_" gradientUnits="userSpaceOnUse" x1="283.513" y1="132.4903" x2="375.0735" y2="132.4903" gradientTransform="matrix(0.9998 -2.116664e-02 -2.116664e-02 -0.9998 3.6306 606.0584)">
			<stop offset="0" style="stop-color:#23286B"/>
			<stop offset="1" style="stop-color:#151A4F"/>
		</linearGradient>
		<path id="L_shoe" d="M375.7,459.7l-13.9,39.5l-78.1-63.2c0,0,10.3-4.5,28.3,0.7s40,3.6,40,3.6L375.7,459.7" style="fill:url(#L_shoe_1_);"/>
		
			<linearGradient id="circle_1_" gradientUnits="userSpaceOnUse" x1="730.2982" y1="212.4549" x2="492.2937" y2="-40.062" gradientTransform="matrix(1 0 0 -1 0 602)">
			<stop offset="0" style="stop-color:#23286B"/>
			<stop offset="1" style="stop-color:#151A4F"/>
		</linearGradient>
		<circle id="circle" cx="671.3" cy="452.1" r="62.7" style="fill:url(#circle_1_);"/>
		
			<linearGradient id="half_a_circle_1_" gradientUnits="userSpaceOnUse" x1="189.3692" y1="156.6231" x2="340.4374" y2="156.6231" gradientTransform="matrix(1 0 0 -1 0 602)">
			<stop offset="0" style="stop-color:#A1C3FC"/>
			<stop offset="0.6955" style="stop-color:#81AEF2"/>
			<stop offset="1" style="stop-color:#78A9EF"/>
		</linearGradient>
		<path id="half_a_circle" d="M273.6,514.8c-46.5,0-84.2-37.7-84.3-84.2c0-19.2,6.5-37.8,18.5-52.7l1.5-1.9
			l131.1,106.2l-1.5,1.8C322.9,503.5,298.9,514.8,273.6,514.8z M210.1,382.7c-26.4,35.1-19.4,85,15.8,111.4
			c33.3,25.1,80.4,20.2,107.8-11.3L210.1,382.7z" style="fill:url(#half_a_circle_1_);"/>
		<path id="triangle" d="M578.6,432l9.6-153l135.2,72.2L578.6,432z M592.7,287.1l-8.5,136.1L713,351.3L592.7,287.1z" style="fill:#428DFC;"/>
		
			<linearGradient id="R_leg_1_" gradientUnits="userSpaceOnUse" x1="269.8345" y1="312.9146" x2="418.5772" y2="250.0531" gradientTransform="matrix(1 0 0 -1 0 602)">
			<stop offset="8.983001e-02" style="stop-color:#EEEEEE"/>
			<stop offset="0.8178" style="stop-color:#D6D7D8"/>
		</linearGradient>
		<path id="R_leg" d="M563.6,296.7C563.6,296.8,563.5,296.8,563.6,296.7c-0.1,0.2-0.2,0.3-0.2,0.4
			c-0.1,0.2-0.2,0.4-0.3,0.6c-0.1,0.1-0.2,0.3-0.2,0.4c-0.2,0.3-0.3,0.5-0.5,0.8c-0.2,0.4-0.5,0.7-0.8,1.1c-0.2,0.3-0.5,0.7-0.8,1.1
			c-0.3,0.5-0.7,1-1.2,1.5c-0.2,0.2-0.4,0.5-0.6,0.7c-1.1,1.5-2.5,3-4.1,4.7c-0.4,0.4-0.8,0.8-1.2,1.2c-0.2,0.1-0.3,0.3-0.5,0.5
			c-0.3,0.3-0.6,0.6-0.9,0.9c-0.3,0.3-0.6,0.6-0.9,0.9c-0.2,0.2-0.4,0.4-0.6,0.5c-0.8,0.7-1.6,1.4-2.5,2.1c-0.3,0.3-0.7,0.5-1,0.8
			c-1.1,0.9-2.3,1.7-3.5,2.6c-0.4,0.3-0.8,0.6-1.3,0.9c-1.4,0.9-2.9,1.9-4.4,2.7c-0.3,0.2-0.7,0.4-1,0.6c-4.6,2.5-9.4,4.6-14.4,6.2
			c-0.5,0.1-0.9,0.3-1.4,0.4c-0.2,0.1-0.3,0.1-0.5,0.1c-0.4,0.1-0.9,0.3-1.3,0.4c-0.5,0.1-0.9,0.3-1.3,0.4c-0.5,0.1-1,0.3-1.5,0.4
			c-0.2,0.1-0.4,0.1-0.6,0.2c-0.6,0.1-1.2,0.3-1.8,0.4c-2.1,0.5-4.2,0.9-6.5,1.2c-1.3,0.2-2.6,0.4-4,0.5c-0.5,0.1-0.9,0.1-1.4,0.1
			c-0.5,0.1-1,0.1-1.6,0.1c-0.8,0.1-1.6,0.1-2.4,0.2c-0.7,0-1.3,0.1-2,0.1c-1,0-2,0.1-3,0.1c-0.9,0-1.7,0-2.6,0h-0.9
			c-0.5,0-0.9,0-1.4,0c-18.9-1.2-36.5-4-45.2-2.6c-19.6,3.1-26.3,27.9-36.1,41.8c-9.8,13.9-24.2,12.9-25.8,33
			c-1.5,20.1-29.4,35.3-29.4,35.3l0,0l-42.8-34.5c0,0,65.4-74.6,87.1-99.4c1.4-1.6,2.6-2.9,3.6-4.1c14.9-16.2,78.2-28.4,96.9-31.6
			C518,294.7,546,297.7,563.6,296.7z" style="fill:url(#R_leg_1_);"/>
		
			<linearGradient id="L_leg_1_" gradientUnits="userSpaceOnUse" x1="413.5427" y1="228.7475" x2="575.566" y2="384.5733" gradientTransform="matrix(1 0 0 -1 0 602)">
			<stop offset="8.983001e-02" style="stop-color:#EEEEEE"/>
			<stop offset="0.8178" style="stop-color:#D6D7D8"/>
		</linearGradient>
		<path id="L_leg" d="M563.6,296.7C563.6,296.8,563.6,296.8,563.6,296.7c-0.1,0.2-0.2,0.3-0.3,0.4
			c-0.1,0.2-0.2,0.4-0.3,0.6c-0.1,0.1-0.2,0.3-0.2,0.4c-0.2,0.3-0.3,0.5-0.5,0.8c-0.2,0.4-0.5,0.7-0.8,1.1c-0.2,0.3-0.5,0.7-0.8,1.1
			c-0.3,0.5-0.7,1-1.2,1.5c-0.2,0.2-0.4,0.5-0.6,0.7c-1.1,1.5-2.5,3-4.1,4.7c-0.4,0.4-0.8,0.8-1.2,1.2c-0.2,0.1-0.3,0.3-0.5,0.5
			c-0.3,0.3-0.6,0.6-0.9,0.9c-0.3,0.3-0.6,0.6-0.9,0.9c-0.2,0.2-0.4,0.4-0.6,0.5c-0.8,0.7-1.6,1.4-2.5,2.1c-0.3,0.3-0.7,0.5-1,0.8
			c-1.1,0.9-2.3,1.7-3.5,2.6c-0.4,0.3-0.8,0.6-1.3,0.9c-1.4,0.9-2.9,1.9-4.4,2.7c-0.3,0.2-0.7,0.4-1,0.6c-4.6,2.5-9.4,4.6-14.4,6.2
			c-0.5,0.1-0.9,0.3-1.4,0.4c-0.2,0.1-0.3,0.1-0.5,0.1c-0.4,0.1-0.9,0.3-1.3,0.4c-0.5,0.1-0.9,0.3-1.3,0.4c-0.5,0.1-1,0.3-1.5,0.4
			c-0.2,0.1-0.4,0.1-0.6,0.2c-0.6,0.1-1.2,0.3-1.8,0.4c-2.1,0.5-4.2,0.9-6.5,1.2c-1.3,0.2-2.6,0.4-4,0.5c-0.5,0.1-0.9,0.1-1.4,0.1
			c-0.5,0.1-1,0.1-1.6,0.1c-0.8,0.1-1.6,0.1-2.4,0.2c-0.7,0-1.3,0.1-2,0.1c-1,0-2,0.1-3,0.1c-0.9,0-1.7,0-2.6,0h-0.9
			c-0.5,0-0.9,0-1.4,0c-44.1-0.2-40.6,6.8-46.2,19.1c-5.7,12.4-1.5,25.3-15.5,40.8c-13.9,15.5-10.3,31.8-12.9,47.5
			c-1.6,9.4-13,35-21.2,38.6l-40.7-38.4c0,0,0.6-1.6,1.6-4.5c7.4-20.4,31.8-105.7,38.6-121.1c1.2-2.8,2.6-5.6,4.1-8.3
			c6-10.6,12.2-13.7,25.3-17.5c12.1-3.5,53.5-15.7,72.6-21.3c0.9,1.1,1.7,2.1,2.6,3.1C518,294.7,546,297.7,563.6,296.7L563.6,296.7z
			" style="fill:url(#L_leg_1_);"/>
		<path id="texture" d="M522.3,298.8c0-0.1-0.1-0.2-0.2-0.2c-0.1,0-0.2,0.1-0.2,0.2c0,0.1,0.1,0.2,0.2,0.2c0,0,0,0,0,0
			C522.2,299,522.3,298.9,522.3,298.8C522.3,298.8,522.3,298.8,522.3,298.8z M522.5,293.7c0-0.1-0.1-0.2-0.2-0.2c0,0,0,0,0,0
			c-0.1,0-0.2,0.1-0.2,0.2c0,0.1,0.1,0.2,0.2,0.2C522.4,293.9,522.5,293.8,522.5,293.7C522.5,293.7,522.5,293.7,522.5,293.7
			L522.5,293.7z M502.7,289.7c-0.1-0.1-0.2-0.1-0.3,0c-0.1,0.1-0.1,0.2,0,0.3c0,0,0,0,0,0c0.1,0.1,0.2,0.1,0.3,0
			C502.8,289.9,502.8,289.8,502.7,289.7L502.7,289.7z M532.4,294.2c0-0.1-0.2-0.2-0.3-0.1s-0.2,0.2-0.1,0.3s0.2,0.2,0.3,0.1
			c0,0,0,0,0,0C532.4,294.5,532.4,294.4,532.4,294.2C532.4,294.2,532.4,294.2,532.4,294.2L532.4,294.2z M512.7,293.6
			c-0.1-0.1-0.2,0-0.3,0.1c-0.1,0.1,0,0.2,0.1,0.3s0.2,0,0.3-0.1C512.9,293.8,512.8,293.7,512.7,293.6z M514.8,289
			c-0.1,0-0.2,0-0.3,0.1c0,0.1,0,0.2,0.1,0.3c0,0,0,0,0,0c0.1,0.1,0.2,0,0.3-0.1c0,0,0,0,0,0C515,289.1,514.9,289,514.8,289
			L514.8,289z M547.2,311.2c-0.1-0.2-0.3-0.3-0.5-0.2c0,0,0,0,0,0c-0.2,0.1-0.3,0.3-0.2,0.5c0,0,0,0,0,0c0.1,0.2,0.3,0.3,0.5,0.2
			c0,0,0,0,0,0C547.2,311.6,547.2,311.4,547.2,311.2C547.2,311.2,547.2,311.2,547.2,311.2z M543.1,302.3c-0.1-0.2-0.3-0.3-0.5-0.2
			c0,0,0,0,0,0c-0.2,0.1-0.3,0.3-0.2,0.5c0.1,0.2,0.3,0.3,0.5,0.2c0,0,0,0,0,0C543.1,302.8,543.2,302.6,543.1,302.3L543.1,302.3z
			 M510.1,321.2c-0.2-0.1-0.4,0-0.5,0.2c-0.1,0.2,0,0.4,0.2,0.5c0,0,0,0,0,0c0.2,0.1,0.4,0,0.5-0.2
			C510.4,321.5,510.3,321.3,510.1,321.2C510.1,321.2,510.1,321.2,510.1,321.2L510.1,321.2z M513.5,312.1c-0.2-0.1-0.4,0-0.5,0.2
			c0,0,0,0,0,0c-0.1,0.2,0,0.4,0.2,0.5s0.4,0,0.5-0.2C513.8,312.4,513.7,312.2,513.5,312.1L513.5,312.1z M517,303
			c-0.2-0.1-0.4,0-0.5,0.2c-0.1,0.2,0,0.4,0.2,0.5c0,0,0,0,0,0c0.2,0.1,0.4,0,0.5-0.2c0,0,0,0,0,0C517.3,303.3,517.2,303.1,517,303
			L517,303z M520.3,293.9c-0.2-0.1-0.4,0-0.5,0.2c0,0,0,0,0,0c-0.1,0.2,0,0.4,0.2,0.5c0.2,0.1,0.4,0,0.5-0.2S520.6,294,520.3,293.9
			C520.4,293.9,520.3,293.9,520.3,293.9z M557.9,297.8c-0.2-0.2-0.4-0.1-0.6,0c-0.2,0.2-0.1,0.4,0,0.6s0.4,0.1,0.6,0
			S558.1,297.9,557.9,297.8C557.9,297.8,557.9,297.8,557.9,297.8z M531.5,320.3c0-0.2-0.2-0.4-0.4-0.4c-0.2,0-0.4,0.2-0.4,0.4
			c0,0.2,0.2,0.4,0.4,0.4c0,0,0,0,0,0C531.3,320.7,531.5,320.6,531.5,320.3L531.5,320.3z M531.1,310.6c0-0.2-0.2-0.4-0.4-0.4
			c-0.2,0-0.4,0.2-0.4,0.4c0,0.2,0.2,0.4,0.4,0.4c0,0,0,0,0,0C531,311,531.1,310.9,531.1,310.6L531.1,310.6z M530.8,300.9
			c0-0.2-0.2-0.4-0.4-0.4c-0.2,0-0.4,0.2-0.4,0.4c0,0.2,0.2,0.4,0.4,0.4C530.6,301.4,530.8,301.2,530.8,300.9L530.8,300.9z
			 M496.5,307.3c-0.2-0.1-0.4-0.1-0.5,0c0,0,0,0,0,0c-0.1,0.2-0.1,0.4,0,0.6c0,0,0,0,0,0c0.2,0.2,0.4,0.1,0.6,0
			C496.6,307.7,496.6,307.5,496.5,307.3L496.5,307.3z M503.1,300.2c-0.2-0.2-0.4-0.2-0.6,0c0,0,0,0,0,0c-0.2,0.2-0.1,0.4,0,0.6
			c0.2,0.1,0.4,0.1,0.6,0C503.3,300.6,503.3,300.4,503.1,300.2C503.1,300.2,503.1,300.2,503.1,300.2L503.1,300.2z M509.7,293.1
			c-0.2-0.2-0.4-0.1-0.6,0c-0.2,0.2-0.1,0.4,0,0.6c0,0,0,0,0,0c0.2,0.1,0.4,0.1,0.5,0c0,0,0,0,0,0
			C509.9,293.5,509.9,293.3,509.7,293.1L509.7,293.1z M539.8,311.2c0-0.2-0.2-0.3-0.4-0.3c-0.2,0-0.3,0.2-0.3,0.4s0.2,0.3,0.4,0.3h0
			C539.6,311.6,539.8,311.4,539.8,311.2C539.8,311.2,539.8,311.2,539.8,311.2L539.8,311.2z M538.6,302.6c0-0.1,0-0.1-0.1-0.2l0,0
			c-0.1-0.1-0.2-0.1-0.3-0.1c-0.2,0-0.3,0.2-0.3,0.4c0,0,0,0,0,0c0,0.2,0.2,0.3,0.4,0.3c0.1,0,0.2-0.1,0.2-0.1
			C538.6,302.8,538.7,302.7,538.6,302.6L538.6,302.6z M505.6,310c-0.2-0.1-0.4-0.1-0.5,0.1c0,0,0,0,0,0c-0.1,0.1-0.1,0.4,0,0.5
			c0,0,0,0,0,0c0.2,0.1,0.4,0.1,0.5-0.1C505.7,310.4,505.7,310.2,505.6,310L505.6,310z M510.8,303.2c-0.2-0.1-0.4-0.1-0.5,0.1
			c0,0,0,0,0,0c-0.1,0.1-0.1,0.4,0,0.5c0,0,0,0,0,0c0.2,0.1,0.4,0.1,0.5-0.1C511,303.5,511,303.3,510.8,303.2L510.8,303.2z
			 M516.1,296.3c-0.2-0.1-0.4-0.1-0.5,0.1c0,0,0,0,0,0c-0.1,0.1-0.1,0.4,0,0.5c0,0,0,0,0,0c0.2,0.1,0.4,0.1,0.5-0.1c0,0,0,0,0,0
			C516.3,296.7,516.3,296.4,516.1,296.3L516.1,296.3z M521.4,289.5c-0.2-0.1-0.4-0.1-0.5,0.1c-0.1,0.2-0.1,0.4,0.1,0.5
			c0.2,0.1,0.4,0.1,0.5-0.1C521.6,289.8,521.5,289.6,521.4,289.5L521.4,289.5z M552.6,302.3c-0.1-0.2-0.3-0.2-0.5-0.1c0,0,0,0,0,0
			c-0.2,0.1-0.2,0.3-0.1,0.5c0,0,0,0,0,0c0.1,0.2,0.3,0.2,0.5,0.1c0,0,0,0,0,0C552.7,302.7,552.7,302.5,552.6,302.3L552.6,302.3z
			 M523.9,314.2c-0.2,0-0.4,0.1-0.4,0.3c0,0.2,0.1,0.4,0.3,0.4c0.2,0.1,0.4-0.1,0.4-0.2C524.2,314.5,524.1,314.3,523.9,314.2z
			 M526.2,305.9c-0.2,0-0.4,0.1-0.4,0.3c0,0.2,0.1,0.4,0.3,0.4c0.2,0.1,0.4,0,0.4-0.2c0,0,0,0,0,0
			C526.5,306.1,526.3,305.9,526.2,305.9L526.2,305.9z M528.4,297.5c-0.2-0.1-0.4,0-0.4,0.2c0,0,0,0,0,0c0,0.2,0.1,0.4,0.3,0.4
			c0.2,0,0.4-0.1,0.4-0.3C528.7,297.8,528.6,297.6,528.4,297.5C528.4,297.5,528.4,297.5,528.4,297.5L528.4,297.5z M497.7,294.4
			c-0.1-0.2-0.3-0.2-0.5-0.1c-0.2,0.1-0.2,0.3-0.1,0.5c0,0,0,0,0,0c0.1,0.2,0.3,0.2,0.5,0.1c0,0,0,0,0,0
			C497.7,294.8,497.8,294.6,497.7,294.4C497.7,294.4,497.7,294.4,497.7,294.4L497.7,294.4z M505.2,290.1c-0.1-0.2-0.3-0.2-0.5-0.1
			c-0.2,0.1-0.2,0.3-0.1,0.5c0.1,0.2,0.3,0.2,0.5,0.1C505.2,290.5,505.3,290.3,505.2,290.1C505.2,290.1,505.2,290.1,505.2,290.1
			L505.2,290.1z M549.1,300.2c0-0.1-0.2-0.2-0.3-0.1c-0.1,0-0.2,0.2-0.1,0.3s0.2,0.2,0.3,0.1l0,0
			C549.1,300.4,549.2,300.3,549.1,300.2z M527.6,298.5c-0.1-0.1-0.2,0-0.3,0.1s0,0.2,0.1,0.3s0.2,0,0.3-0.1l0,0
			C527.7,298.7,527.7,298.6,527.6,298.5C527.6,298.5,527.6,298.5,527.6,298.5L527.6,298.5z M529.8,293.9c-0.1-0.1-0.2,0-0.3,0.1
			c0,0,0,0,0,0c-0.1,0.1,0,0.2,0.1,0.3c0,0,0,0,0,0c0.1,0.1,0.2,0,0.3-0.1C530,294.1,530,294,529.8,293.9
			C529.8,293.9,529.8,293.9,529.8,293.9L529.8,293.9z M538.7,298.9c0-0.1-0.1-0.2-0.2-0.2c0,0,0,0,0,0c-0.1,0-0.2,0.1-0.2,0.2
			c0,0,0,0,0,0c0,0.1,0.1,0.2,0.2,0.2C538.6,299.1,538.7,299,538.7,298.9L538.7,298.9z M521.1,290.1c-0.1-0.1-0.2-0.1-0.3,0
			c0,0,0,0,0,0c-0.1,0.1-0.1,0.2,0,0.3c0.1,0.1,0.2,0.1,0.3,0C521.1,290.3,521.1,290.2,521.1,290.1z M550.4,306.3
			c0-0.1-0.1-0.2-0.3-0.2c0,0,0,0,0,0c-0.1,0-0.2,0.1-0.2,0.3c0,0,0,0,0,0c0,0.1,0.1,0.2,0.3,0.2c0,0,0,0,0,0
			C550.3,306.5,550.4,306.4,550.4,306.3L550.4,306.3z M549.6,300.5c0-0.1-0.1-0.2-0.3-0.2c0,0,0,0,0,0c-0.1,0-0.2,0.1-0.2,0.3
			c0,0.1,0.1,0.2,0.3,0.2c0,0,0,0,0,0C549.5,300.8,549.6,300.6,549.6,300.5C549.6,300.5,549.6,300.5,549.6,300.5L549.6,300.5z
			 M526.6,300c-0.1-0.1-0.3,0-0.3,0.1c-0.1,0.1-0.1,0.3,0,0.3c0.1,0.1,0.2,0.1,0.3,0c0,0,0,0,0,0C526.7,300.2,526.7,300.1,526.6,300
			C526.6,300,526.6,300,526.6,300L526.6,300z M530.1,295.3c-0.1-0.1-0.3,0-0.3,0.1c-0.1,0.1-0.1,0.3,0,0.3c0.1,0.1,0.3,0.1,0.3,0
			c0,0,0,0,0,0C530.2,295.6,530.2,295.4,530.1,295.3L530.1,295.3z M560.8,299.2c-0.1-0.1-0.2-0.2-0.3-0.1c0,0,0,0,0,0
			c-0.1,0.1-0.2,0.2-0.1,0.3c0.1,0.1,0.2,0.2,0.3,0.1c0,0,0,0,0,0C560.8,299.5,560.8,299.3,560.8,299.2L560.8,299.2z M538.7,302.7
			c0-0.1,0-0.3-0.2-0.3c0,0,0,0,0,0l0,0c-0.1,0-0.2,0.1-0.3,0.2c0,0.1,0,0.3,0.2,0.3c0,0,0,0,0,0c0,0,0.1,0,0.1,0
			C538.6,302.9,538.7,302.8,538.7,302.7L538.7,302.7z M540,296.8c-0.1,0-0.3,0.1-0.3,0.2c0,0.1,0.1,0.3,0.2,0.3c0.1,0,0.3,0,0.3-0.2
			c0,0,0,0,0,0C540.2,296.9,540.2,296.8,540,296.8L540,296.8z M520.8,289.2c-0.1-0.1-0.2-0.1-0.3-0.1c0,0,0,0,0,0
			c-0.1,0.1-0.1,0.2-0.1,0.3c0.1,0.1,0.2,0.2,0.3,0.1c0,0,0,0,0,0C520.8,289.5,520.9,289.4,520.8,289.2L520.8,289.2z M564,297.1
			c-0.1-0.2-0.4-0.3-0.6-0.2c-0.2,0.1-0.3,0.4-0.2,0.6c0.1,0.2,0.4,0.3,0.6,0.2C564,297.6,564.1,297.3,564,297.1L564,297.1z
			 M536.6,328.1c-0.2-0.1-0.5,0.1-0.5,0.3c-0.1,0.2,0.1,0.4,0.3,0.5c0.2,0.1,0.4-0.1,0.5-0.3C537,328.4,536.8,328.2,536.6,328.1z
			 M539.3,318.5c-0.2-0.1-0.4,0.1-0.5,0.3c-0.1,0.2,0.1,0.4,0.3,0.5c0.2,0.1,0.4-0.1,0.5-0.3C539.7,318.8,539.5,318.5,539.3,318.5z
			 M542,308.8c-0.2-0.1-0.4,0.1-0.5,0.3c-0.1,0.2,0.1,0.4,0.3,0.5c0,0,0,0,0,0c0.2,0.1,0.5-0.1,0.5-0.3
			C542.4,309.1,542.2,308.9,542,308.8L542,308.8z M544.7,299.2c-0.2-0.1-0.4,0.1-0.5,0.3c0,0,0,0,0,0c-0.1,0.2,0.1,0.4,0.3,0.5
			c0.2,0.1,0.4-0.1,0.5-0.3C545.1,299.5,544.9,299.3,544.7,299.2C544.7,299.2,544.7,299.2,544.7,299.2L544.7,299.2z M503.8,302.3
			c-0.1-0.2-0.4-0.3-0.6-0.2c-0.2,0.1-0.3,0.4-0.2,0.6c0.1,0.2,0.4,0.3,0.6,0.2C503.8,302.7,503.9,302.5,503.8,302.3L503.8,302.3z
			 M512.5,297.4c-0.1-0.2-0.4-0.3-0.6-0.2c-0.2,0.1-0.3,0.4-0.2,0.6s0.4,0.3,0.6,0.2C512.5,297.8,512.6,297.6,512.5,297.4
			L512.5,297.4z M521.2,292.5c-0.1-0.2-0.3-0.3-0.5-0.2c0,0,0,0,0,0c-0.2,0.1-0.3,0.4-0.2,0.6c0.1,0.2,0.4,0.3,0.6,0.2
			C521.2,293,521.3,292.7,521.2,292.5C521.2,292.5,521.2,292.5,521.2,292.5L521.2,292.5z M555.8,305.6c0-0.2-0.2-0.4-0.5-0.4
			c-0.2,0-0.4,0.2-0.4,0.5c0,0.2,0.2,0.4,0.5,0.4C555.7,306.1,555.8,305.9,555.8,305.6z M521.1,315.2c-0.2-0.1-0.4-0.1-0.6,0.1
			c0,0,0,0,0,0c-0.1,0.2-0.1,0.4,0.1,0.6c0.2,0.1,0.4,0.1,0.6-0.1C521.3,315.6,521.3,315.3,521.1,315.2
			C521.1,315.2,521.1,315.2,521.1,315.2L521.1,315.2z M527.3,307.3c-0.2-0.1-0.4-0.1-0.6,0.1c0,0,0,0,0,0c-0.1,0.2-0.1,0.4,0.1,0.6
			c0,0,0,0,0,0c0.2,0.1,0.4,0.1,0.6-0.1c0,0,0,0,0,0C527.5,307.7,527.5,307.5,527.3,307.3C527.3,307.3,527.3,307.3,527.3,307.3
			L527.3,307.3z M533.4,299.5c-0.2-0.1-0.4-0.1-0.6,0.1c-0.1,0.2-0.1,0.4,0.1,0.6c0.2,0.1,0.4,0.1,0.6-0.1c0,0,0,0,0,0
			C533.7,299.9,533.6,299.6,533.4,299.5C533.4,299.5,533.4,299.5,533.4,299.5L533.4,299.5z M561.4,301c0-0.2-0.2-0.4-0.4-0.3
			c0,0,0,0,0,0c-0.2,0-0.4,0.2-0.4,0.5c0,0.2,0.3,0.4,0.5,0.3C561.3,301.5,561.4,301.3,561.4,301C561.4,301,561.4,301,561.4,301
			L561.4,301z M525.2,320.6c-0.2-0.1-0.4-0.1-0.6,0.1c-0.1,0.2-0.1,0.4,0.1,0.6c0.2,0.1,0.4,0.1,0.6-0.1
			C525.5,321,525.4,320.8,525.2,320.6C525.2,320.6,525.2,320.6,525.2,320.6L525.2,320.6z M531.1,312.6c-0.2-0.1-0.5-0.1-0.6,0.1
			c-0.1,0.2-0.1,0.4,0.1,0.6c0.2,0.1,0.4,0.1,0.6-0.1C531.3,313,531.2,312.7,531.1,312.6L531.1,312.6z M536.9,304.5
			c-0.2-0.1-0.4-0.1-0.6,0.1s-0.1,0.4,0.1,0.6c0.2,0.1,0.4,0.1,0.6-0.1C537.1,304.9,537.1,304.6,536.9,304.5L536.9,304.5z
			 M542.7,296.4c-0.2-0.1-0.4-0.1-0.6,0.1c0,0,0,0,0,0c-0.1,0.2-0.1,0.4,0.1,0.6c0.2,0.1,0.4,0.1,0.6-0.1c0,0,0,0,0,0
			C542.9,296.8,542.9,296.5,542.7,296.4C542.7,296.4,542.7,296.4,542.7,296.4L542.7,296.4z M550.7,304.9c-0.2,0-0.4,0.1-0.5,0.3
			c-0.1,0.2,0.1,0.4,0.3,0.5s0.4-0.1,0.5-0.3c0,0,0,0,0,0C551.1,305.2,551,305,550.7,304.9C550.8,304.9,550.8,304.9,550.7,304.9
			L550.7,304.9z M515.3,302.5c-0.1-0.2-0.4-0.2-0.6-0.1c0,0,0,0,0,0c-0.2,0.1-0.3,0.4-0.1,0.6c0.1,0.2,0.4,0.3,0.6,0.1
			C515.4,302.9,515.4,302.7,515.3,302.5C515.3,302.5,515.3,302.5,515.3,302.5L515.3,302.5z M523.8,297.2c-0.1-0.2-0.4-0.2-0.6-0.1
			c0,0,0,0,0,0c-0.2,0.1-0.3,0.4-0.1,0.6c0.1,0.2,0.4,0.3,0.6,0.1C523.9,297.7,523.9,297.4,523.8,297.2
			C523.8,297.2,523.8,297.2,523.8,297.2L523.8,297.2z M532.3,305.1c-0.1-0.1-0.3-0.1-0.4,0c0,0,0,0,0,0c-0.1,0.1-0.1,0.3,0,0.4
			s0.3,0.1,0.4,0C532.4,305.4,532.4,305.2,532.3,305.1z M537.9,300c-0.1-0.1-0.3-0.1-0.4,0c0,0,0,0,0,0c-0.1,0.1-0.1,0.3,0,0.4
			s0.3,0.1,0.4,0C538,300.3,538,300.1,537.9,300C537.9,300,537.9,300,537.9,300z M546.9,311c-0.2-0.1-0.3,0-0.4,0.1c0,0,0,0,0,0
			c-0.1,0.2,0,0.3,0.1,0.4c0.2,0.1,0.3,0,0.4-0.1C547.2,311.3,547.1,311.1,546.9,311C547,311,546.9,311,546.9,311z M550.1,304.2
			c-0.1-0.1-0.3,0-0.4,0.1c0,0,0,0,0,0c-0.1,0.2,0,0.3,0.1,0.4c0,0,0,0,0,0c0.2,0.1,0.3,0,0.4-0.2
			C550.4,304.5,550.3,304.3,550.1,304.2C550.1,304.2,550.1,304.2,550.1,304.2L550.1,304.2z M553.4,297.4c-0.2-0.1-0.3,0-0.4,0.2
			c-0.1,0.1,0,0.3,0.1,0.4c0,0,0,0,0,0c0.1,0.1,0.3,0,0.4-0.1c0,0,0,0,0,0C553.6,297.7,553.5,297.5,553.4,297.4
			C553.4,297.4,553.4,297.4,553.4,297.4z M555.6,296.9c-0.1-0.1-0.2,0-0.2,0c-0.1,0.1,0,0.2,0,0.2c0,0,0,0,0,0c0.1,0,0.2,0,0.2-0.1
			C555.7,297.1,555.7,297,555.6,296.9z M548.6,300.8c-0.1-0.1-0.2-0.2-0.4-0.1c0,0,0,0,0,0c-0.1,0.1-0.2,0.2-0.1,0.3c0,0,0,0,0,0
			c0.1,0.1,0.3,0.2,0.4,0.1C548.7,301.1,548.7,300.9,548.6,300.8C548.7,300.8,548.6,300.8,548.6,300.8L548.6,300.8z M554.3,297.1
			c-0.1-0.1-0.3-0.2-0.4-0.1c-0.1,0.1-0.2,0.2-0.1,0.4c0,0,0,0,0,0c0.1,0.1,0.2,0.2,0.4,0.1c0,0,0,0,0,0
			C554.4,297.4,554.4,297.2,554.3,297.1C554.3,297.1,554.3,297.1,554.3,297.1L554.3,297.1z" style="opacity:0.86;fill:#FFFFFF;enable-background:new    ;"/>
		
			<linearGradient id="R_hand_1_" gradientUnits="userSpaceOnUse" x1="383.415" y1="386.4284" x2="493.18" y2="386.4284" gradientTransform="matrix(1 0 0 -1 0 602)">
			<stop offset="0" style="stop-color:#FFBEB6"/>
			<stop offset="1" style="stop-color:#F2A19C"/>
		</linearGradient>
		<path id="R_hand" d="M493.2,244.2c-0.8,0-1.6,0-2.5,0c-7.3-0.4-21.9-3.3-36.5-7.6c-6.8-2-13.6-4.2-19.6-6.6
			c-0.7-0.3-1.4-0.6-2.2-0.9c-2.5-1.1-5-2-7.6-2.7c-1.5-0.4-2.9-0.7-4.2-1c-1.5-0.3-3.1-0.5-4.7-0.6c-0.7-0.1-1.3-0.1-2-0.1
			c-15.7-2.5-23.2-7.7-26.9-14.5c-0.1-0.1-0.1-0.2-0.2-0.3c-0.1-0.2-0.2-0.5-0.4-0.7c-2.4-4.9-3.5-10.4-3-15.8
			c0.3-2.8,1-4.9,1.9-5.6c0.2-0.2,0.4-0.3,0.6-0.4c0.9-0.1,1.8,0.2,2.5,0.7c0,0,0,0,0,0c0.1,0.1,0.2,0.1,0.3,0.2
			c5,3,13,12.6,16.9,14.7c0,0,0.1,0.1,0.1,0.1c3.5,1.8,2.6-0.8,0-5.1c-0.8-1.3-1.8-2.8-2.8-4.3c-4.4-6.4-3.4-11,8.1,0.2
			c0.5,0.5,1,1,1.5,1.5c0.9,0.9,1.8,1.8,2.7,2.6c0,0,0.1,0.1,0.1,0.1c2,2.2,4.4,4.8,6.2,7.2c4.2,5.4,13.7,7.5,17.6,8.3c0,0,0,0,0,0
			c11.6,2.5,28.3,1.3,28.3,1.3s7-0.2,14.5-0.7l9.7,26.3L493.2,244.2z" style="fill:url(#R_hand_1_);"/>
		
			<linearGradient id="back_1_" gradientUnits="userSpaceOnUse" x1="368.7624" y1="488.8226" x2="393.0436" y2="385.1355" gradientTransform="matrix(1 0 0 -1 0 602)">
			<stop offset="0.122" style="stop-color:#E94A47"/>
			<stop offset="1" style="stop-color:#C63030"/>
		</linearGradient>
		<polygon id="back" points="425.4,237.9 385.3,263.7 358.3,185.6 398.4,159.8 		" style="fill:url(#back_1_);"/>
		<polygon id="cover" points="440.3,263.4 385.5,263.4 358.5,185.3 413.3,185.3 		" style="fill:#E94A47;"/>
		
			<linearGradient id="L_hand_1_" gradientUnits="userSpaceOnUse" x1="370.9816" y1="351.8379" x2="472.2401" y2="351.8379" gradientTransform="matrix(1 0 0 -1 0 602)">
			<stop offset="0" style="stop-color:#FFBEB6"/>
			<stop offset="1" style="stop-color:#F2A19C"/>
		</linearGradient>
		<path id="L_hand" d="M471.4,282.1l0.8,4.1c-0.8-0.1-1.6-0.2-2.4-0.4c-7.1-1.5-21.2-6.6-35-13
			c-7-3.2-13.8-6.8-20.4-10.7c-2.3-1.4-4.7-2.7-7.1-3.8c-3.3-1.5-6.9-2.6-10.5-3.3c-23.5-7.5-26.5-18.2-25.8-31.3
			c0.8-13.6,4.6-10.5,11.4-4.5c6.8,6,14.7,12.5,19.4,12.2c4.7-0.3,2.1-7.8,5.3-13.1c3.2-5.3,6.1-2.9,5.6-0.2
			c-0.9,5.9-1.2,11.8-0.9,17.7c0.4,6.4,0.5,7.6,11.6,11.8c11.1,4.2,27.8,5.5,27.8,5.5s7,0.8,14.4,1.5L471.4,282.1z" style="fill:url(#L_hand_1_);"/>
		
			<linearGradient id="R_sleeve_1_" gradientUnits="userSpaceOnUse" x1="469.6559" y1="431.2924" x2="524.9186" y2="341.4904" gradientTransform="matrix(1 0 0 -1 0 602)">
			<stop offset="0" style="stop-color:#23286B"/>
			<stop offset="0.432" style="stop-color:#1D225F"/>
			<stop offset="1" style="stop-color:#151A4F"/>
		</linearGradient>
		<path id="R_sleeve" d="M503.1,181.4c0,0,8,33.1-41.4,33.5l6,39.2c0,0,18.6,10.5,30.1-2.5s37.2,1.5,42.7-21.1
			s-2.9-43.8-23.5-60.8l0,0L503.1,181.4" style="fill:url(#R_sleeve_1_);"/>
		
			<linearGradient id="sweater_1_" gradientUnits="userSpaceOnUse" x1="561.5087" y1="398.7865" x2="497.2126" y2="286.667" gradientTransform="matrix(1 0 0 -1 0 602)">
			<stop offset="0" style="stop-color:#23286B"/>
			<stop offset="1" style="stop-color:#151A4F"/>
		</linearGradient>
		<path id="sweater" d="M517,169.6c0,0,56.2,37.7,63.2,124.6c0,0-54.7,15.6-87.9-29.1c0,0,20.6-41.1,10.8-83.8l0,0
			L517,169.6" style="fill:url(#sweater_1_);"/>
		<path id="L_sleeve" d="M503.1,181.4c0,0,2.9,28.8-3.5,47.8s-34.7,21-34.7,21l8.5,46.4c0,0,16.2,5.2,24.6-2.8
			s14.4-12.2,22.9-12.6s27.1-11.7,24.3-38.3s-7.1-50.8-28.2-73.3l0,0L503.1,181.4" style="fill:#23286B;"/>
		
			<linearGradient id="neck_1_" gradientUnits="userSpaceOnUse" x1="516.812" y1="410.6693" x2="505.5043" y2="437.1458" gradientTransform="matrix(1 0 0 -1 0 602)">
			<stop offset="0" style="stop-color:#FFBEB6"/>
			<stop offset="1" style="stop-color:#F2A19C"/>
		</linearGradient>
		<path id="neck" d="M498.2,165.2c0,0,4.3,10.5,4.9,16.2c0,0,11.2-0.5,13.9-11.7l-10.6-12.8L498.2,165.2" style="fill:url(#neck_1_);"/>
		<path id="face" d="M508.2,160.5c-1.4,1.1-3.7,2.6-10,4.7c-14.4,4.8-20-7.8-20-7.8c-6.1,0.2-5-3.2-4.5-5.8
			c0.4-2.3,1.4-8.9,1.6-10.2c9.1,2,18-2.7,18-2.7s1,2.4,5.3,4.4c5.7,2.5,7.1-1.1,10.6,1c4.3,2.6,0.9,6.8-1.4,10.8
			C505.7,158.6,507.9,160.1,508.2,160.5z" style="fill:#FFBEB6;"/>
		
			<linearGradient id="eyeglasses_1_" gradientUnits="userSpaceOnUse" x1="462.5948" y1="403.36" x2="482.2453" y2="403.36" gradientTransform="matrix(0.8808 -0.3718 -0.3566 -0.9848 204.7396 719.8239)">
			<stop offset="0.1291" style="stop-color:#428DFC"/>
			<stop offset="0.9987" style="stop-color:#1D72D8"/>
		</linearGradient>
		<path id="eyeglasses" d="M472.3,150.1c0.2-0.1,0.4-0.2,0.6-0.3c1.3-1.1,1.9-2.8,1.6-4.4c1.2-0.3,2.5,0.6,3.5,1.3
			c-0.1,1.1,0.1,2.2,0.4,3.3c0.5,1.5,1.4,2.7,2.6,3.6c1,0.8,2.4,1,3.6,0.5c0.2-0.1,0.5-0.2,0.7-0.4c0.8-0.6,1.4-1.6,1.7-2.6
			c0.4-1.5,0.3-3.1-0.2-4.6c-1.1-3.2-3.9-5.1-6.2-4.1c-1.2,0.6-2.1,1.7-2.4,3c0,0.2-0.1,0.3-0.1,0.5c-1-0.9-2.3-1.4-3.7-1.3
			c-0.1-0.3-0.2-0.7-0.3-1c-1-2.8-3.4-4.4-5.4-3.6l0,0c-2,0.8-2.8,3.7-1.9,6.5C467.9,149.3,470.3,150.9,472.3,150.1z M479.1,149.7
			c-0.5-1.3-0.6-2.7-0.2-4.1c0.2-0.9,0.7-1.6,1.4-2.2c0.2-0.1,0.4-0.2,0.6-0.3c2-0.8,4.3,0.9,5.3,3.7c0.5,1.3,0.6,2.7,0.2,4.1
			c-0.2,1.1-1,2-2,2.5c-1,0.4-2.1,0.2-3-0.5C480.3,152.1,479.5,151,479.1,149.7z M467.6,146.3c-0.8-2.4-0.2-4.8,1.5-5.5
			c1.6-0.7,3.6,0.7,4.5,3.1c0.8,2.4,0.2,4.8-1.5,5.5C470.4,150.1,468.4,148.7,467.6,146.3z" style="fill:url(#eyeglasses_1_);"/>
		<path id="hair" d="M521,130.7c0,0-1.4-17.8-10.1-20.4s-14.3,4.7-14.3,4.7s-9.9-7.5-17.6-2.3s-4.7,14.8-4.7,14.8
			c-8.7-6.3-18.1,0.9-7,10.1c1.1,0.9,2.3,1.7,3.6,2.3c-5.3-1.6-9.5-5.6-10-12.1c0-0.5-0.8-0.5-0.8,0c0.7,8.6,7.5,13.1,15,13.6
			c9.2,2.1,18.2-2.7,18.2-2.7s1,2.5,5.3,4.4c5.7,2.5,7.1-1.1,10.6,1c4.3,2.6,1.3,7-1.7,9.2c-3.7,2.7,0.7,7.3,0.7,7.3
			c8.6-4.9,17.7-12.9,18.6-22.1S521,130.7,521,130.7z" style="fill:#23286B;"/>
	</g>
</g>
</svg>
